<mxfile host="65bd71144e" scale="2" border="0">
    <diagram id="lRwunp---gVruRk167lT" name="Page-1">
        <mxGraphModel dx="1468" dy="1765" grid="0" gridSize="10" guides="1" tooltips="1" connect="1" arrows="1" fold="1" page="1" pageScale="1" pageWidth="850" pageHeight="1100" math="0" shadow="0">
            <root>
                <mxCell id="0"/>
                <mxCell id="1" parent="0"/>
                <mxCell id="4" value="" style="rounded=0;whiteSpace=wrap;html=1;strokeColor=none;fillColor=#E6E6E6;" parent="1" vertex="1">
                    <mxGeometry x="-70" y="302.5" width="1979" height="1059.5" as="geometry"/>
                </mxCell>
                <mxCell id="24" value="&lt;font color=&quot;#0077ff&quot; style=&quot;&quot;&gt;&lt;br&gt;&lt;/font&gt;" style="rounded=0;whiteSpace=wrap;html=1;strokeColor=#0077FF;fillColor=none;shadow=0;" parent="1" vertex="1">
                    <mxGeometry x="343.5" y="1098.75" width="622.5" height="180" as="geometry"/>
                </mxCell>
                <mxCell id="14" value="" style="rounded=0;whiteSpace=wrap;html=1;strokeColor=#0077FF;fontSize=14;fontColor=#0077FF;fillColor=none;" parent="1" vertex="1">
                    <mxGeometry x="343.5" y="558.75" width="622.5" height="470" as="geometry"/>
                </mxCell>
                <mxCell id="2" value="&lt;font color=&quot;#0077ff&quot; style=&quot;&quot;&gt;&lt;span style=&quot;font-weight: bold; font-size: 22px;&quot;&gt;shai&lt;/span&gt;&lt;br&gt;&lt;font style=&quot;font-size: 14px;&quot;&gt;shell with ai&lt;/font&gt;&lt;br&gt;&lt;/font&gt;" style="rounded=1;whiteSpace=wrap;html=1;strokeColor=#0077FF;fillColor=none;shadow=0;" parent="1" vertex="1">
                    <mxGeometry x="424.75" y="743.75" width="200" height="100" as="geometry"/>
                </mxCell>
                <mxCell id="3" value="$&amp;nbsp;shai COMMAND [ARGS]" style="text;html=1;strokeColor=none;fillColor=none;align=center;verticalAlign=middle;whiteSpace=wrap;rounded=0;fontStyle=1;dashed=1;fontColor=#0077FF;fontSize=14;" parent="1" vertex="1">
                    <mxGeometry x="58.5" y="771.25" width="220" height="45" as="geometry"/>
                </mxCell>
                <mxCell id="5" value="$&amp;nbsp;shup COMMAND [ARGS]" style="text;html=1;strokeColor=none;fillColor=none;align=center;verticalAlign=middle;whiteSpace=wrap;rounded=0;fontStyle=1;dashed=1;fontColor=#0077FF;fontSize=14;" parent="1" vertex="1">
                    <mxGeometry x="48.5" y="423.75" width="230" height="45" as="geometry"/>
                </mxCell>
                <mxCell id="6" value="" style="endArrow=classic;html=1;fontSize=14;fontColor=#0077FF;entryX=0;entryY=0.5;entryDx=0;entryDy=0;exitX=1;exitY=0.5;exitDx=0;exitDy=0;strokeColor=#0077FF;" parent="1" source="3" target="14" edge="1">
                    <mxGeometry width="50" height="50" relative="1" as="geometry">
                        <mxPoint x="678.5" y="761.25" as="sourcePoint"/>
                        <mxPoint x="728.5" y="711.25" as="targetPoint"/>
                    </mxGeometry>
                </mxCell>
                <mxCell id="7" value="&lt;font color=&quot;#0077ff&quot; style=&quot;&quot;&gt;&lt;span style=&quot;font-weight: bold; font-size: 22px;&quot;&gt;shup&lt;/span&gt;&lt;br&gt;&lt;font style=&quot;font-size: 14px;&quot;&gt;shai installer&lt;/font&gt;&lt;br&gt;&lt;/font&gt;" style="rounded=1;whiteSpace=wrap;html=1;strokeColor=#0077FF;fillColor=none;shadow=0;" parent="1" vertex="1">
                    <mxGeometry x="554.75" y="393.75" width="200" height="100" as="geometry"/>
                </mxCell>
                <mxCell id="8" value="&lt;font color=&quot;#0077ff&quot; style=&quot;&quot;&gt;&lt;br&gt;&lt;/font&gt;" style="rounded=0;whiteSpace=wrap;html=1;strokeColor=#0077FF;fillColor=none;shadow=0;" parent="1" vertex="1">
                    <mxGeometry x="1151.25" y="387.25" width="200" height="890" as="geometry"/>
                </mxCell>
                <mxCell id="9" value="&lt;span style=&quot;border-color: var(--border-color); color: rgb(0, 119, 255); font-weight: bold; font-size: 22px;&quot;&gt;drive&lt;/span&gt;&lt;br style=&quot;border-color: var(--border-color); color: rgb(0, 119, 255);&quot;&gt;&lt;font style=&quot;border-color: var(--border-color); color: rgb(0, 119, 255); font-size: 14px;&quot;&gt;shai drive&lt;/font&gt;&lt;font color=&quot;#0077ff&quot; style=&quot;&quot;&gt;&lt;br&gt;&lt;/font&gt;" style="rounded=1;whiteSpace=wrap;html=1;strokeColor=#0077FF;fillColor=none;shadow=0;" parent="1" vertex="1">
                    <mxGeometry x="695.38" y="624.38" width="200" height="100" as="geometry"/>
                </mxCell>
                <mxCell id="12" value="" style="endArrow=classic;html=1;fontSize=14;fontColor=#0077FF;entryX=0;entryY=0.5;entryDx=0;entryDy=0;exitX=1;exitY=0.5;exitDx=0;exitDy=0;strokeColor=#0077FF;" parent="1" source="5" target="7" edge="1">
                    <mxGeometry width="50" height="50" relative="1" as="geometry">
                        <mxPoint x="328.5" y="271.25" as="sourcePoint"/>
                        <mxPoint x="388.5" y="271.25" as="targetPoint"/>
                    </mxGeometry>
                </mxCell>
                <mxCell id="15" value="&lt;font color=&quot;#0077ff&quot; style=&quot;&quot;&gt;&lt;br&gt;&lt;/font&gt;" style="rounded=0;whiteSpace=wrap;html=1;strokeColor=#0077FF;fillColor=none;shadow=0;" parent="1" vertex="1">
                    <mxGeometry x="1457.25" y="385" width="333.25" height="892.5" as="geometry"/>
                </mxCell>
                <mxCell id="23" value="" style="endArrow=classic;html=1;fontSize=14;fontColor=#0077FF;exitX=1;exitY=0.5;exitDx=0;exitDy=0;strokeColor=#0077FF;entryX=0;entryY=0.5;entryDx=0;entryDy=0;" parent="1" source="8" target="15" edge="1">
                    <mxGeometry width="50" height="50" relative="1" as="geometry">
                        <mxPoint x="1041" y="801.25" as="sourcePoint"/>
                        <mxPoint x="1456" y="826.25" as="targetPoint"/>
                    </mxGeometry>
                </mxCell>
                <mxCell id="25" value="&lt;font color=&quot;#0077ff&quot; style=&quot;&quot;&gt;&lt;b style=&quot;&quot;&gt;&lt;font style=&quot;font-size: 14px;&quot;&gt;artifactgpt&lt;/font&gt;&lt;/b&gt;&lt;br&gt;&lt;/font&gt;" style="rounded=1;whiteSpace=wrap;html=1;strokeColor=#0077FF;fillColor=none;shadow=0;" parent="1" vertex="1">
                    <mxGeometry x="464.13" y="1126.25" width="100" height="50" as="geometry"/>
                </mxCell>
                <mxCell id="26" value="&lt;font color=&quot;#0077ff&quot; style=&quot;&quot;&gt;&lt;b style=&quot;&quot;&gt;&lt;font style=&quot;font-size: 14px;&quot;&gt;buildgpt&lt;/font&gt;&lt;/b&gt;&lt;br&gt;&lt;/font&gt;" style="rounded=1;whiteSpace=wrap;html=1;strokeColor=#0077FF;fillColor=none;shadow=0;" parent="1" vertex="1">
                    <mxGeometry x="604.13" y="1126.25" width="100" height="50" as="geometry"/>
                </mxCell>
                <mxCell id="27" value="&lt;font color=&quot;#0077ff&quot; style=&quot;&quot;&gt;&lt;b style=&quot;&quot;&gt;&lt;font style=&quot;font-size: 14px;&quot;&gt;codegpt&lt;/font&gt;&lt;/b&gt;&lt;br&gt;&lt;/font&gt;" style="rounded=1;whiteSpace=wrap;html=1;strokeColor=#0077FF;fillColor=none;shadow=0;" parent="1" vertex="1">
                    <mxGeometry x="746.63" y="1126.25" width="100" height="50" as="geometry"/>
                </mxCell>
                <mxCell id="28" value="&lt;font color=&quot;#0077ff&quot; style=&quot;&quot;&gt;&lt;b style=&quot;&quot;&gt;&lt;font style=&quot;font-size: 14px;&quot;&gt;gitgpt&lt;/font&gt;&lt;/b&gt;&lt;br&gt;&lt;/font&gt;" style="rounded=1;whiteSpace=wrap;html=1;strokeColor=#0077FF;fillColor=none;shadow=0;" parent="1" vertex="1">
                    <mxGeometry x="462.88" y="1201.25" width="100" height="50" as="geometry"/>
                </mxCell>
                <mxCell id="29" value="&lt;font color=&quot;#0077ff&quot; style=&quot;&quot;&gt;&lt;b style=&quot;&quot;&gt;&lt;font style=&quot;font-size: 14px;&quot;&gt;lintgpt&lt;/font&gt;&lt;/b&gt;&lt;br&gt;&lt;/font&gt;" style="rounded=1;whiteSpace=wrap;html=1;strokeColor=#0077FF;fillColor=none;shadow=0;" parent="1" vertex="1">
                    <mxGeometry x="602.88" y="1201.25" width="100" height="50" as="geometry"/>
                </mxCell>
                <mxCell id="30" value="&lt;font color=&quot;#0077ff&quot; style=&quot;&quot;&gt;&lt;b style=&quot;&quot;&gt;&lt;font style=&quot;font-size: 14px;&quot;&gt;metalgpt&lt;/font&gt;&lt;/b&gt;&lt;br&gt;&lt;/font&gt;" style="rounded=1;whiteSpace=wrap;html=1;strokeColor=#0077FF;fillColor=none;shadow=0;" parent="1" vertex="1">
                    <mxGeometry x="745.38" y="1201.25" width="100" height="50" as="geometry"/>
                </mxCell>
                <mxCell id="33" value="shgpt" style="text;strokeColor=none;fillColor=none;html=1;fontSize=14;fontStyle=1;verticalAlign=middle;align=center;rounded=0;shadow=0;fontColor=#0077FF;" parent="1" vertex="1">
                    <mxGeometry x="343.5" y="1098.75" width="65" height="40" as="geometry"/>
                </mxCell>
                <mxCell id="34" value="shai" style="text;strokeColor=none;fillColor=none;html=1;fontSize=14;fontStyle=1;verticalAlign=middle;align=center;rounded=0;shadow=0;fontColor=#0077FF;" parent="1" vertex="1">
                    <mxGeometry x="343.5" y="558.75" width="62.5" height="40" as="geometry"/>
                </mxCell>
                <mxCell id="35" value="ollama" style="text;strokeColor=none;fillColor=none;html=1;fontSize=14;fontStyle=1;verticalAlign=middle;align=center;rounded=0;shadow=0;fontColor=#0077FF;" parent="1" vertex="1">
                    <mxGeometry x="1457.25" y="385" width="77.5" height="40" as="geometry"/>
                </mxCell>
                <mxCell id="37" value="&lt;font color=&quot;#0077ff&quot; style=&quot;&quot;&gt;&lt;span style=&quot;font-weight: bold; font-size: 22px;&quot;&gt;gpt&lt;/span&gt;&lt;br&gt;&lt;font style=&quot;font-size: 14px;&quot;&gt;shai gpt&lt;/font&gt;&lt;br&gt;&lt;/font&gt;" style="rounded=1;whiteSpace=wrap;html=1;strokeColor=#0077FF;fillColor=none;shadow=0;" parent="1" vertex="1">
                    <mxGeometry x="695.38" y="863.13" width="200" height="100" as="geometry"/>
                </mxCell>
                <mxCell id="38" value="" style="edgeStyle=elbowEdgeStyle;elbow=horizontal;endArrow=classic;html=1;rounded=1;endSize=8;startSize=8;dashed=1;strokeColor=#0077FF;exitX=1;exitY=0.5;exitDx=0;exitDy=0;entryX=0;entryY=0.5;entryDx=0;entryDy=0;" parent="1" source="2" target="9" edge="1">
                    <mxGeometry width="50" height="50" relative="1" as="geometry">
                        <mxPoint x="986" y="968.75" as="sourcePoint"/>
                        <mxPoint x="1036" y="918.75" as="targetPoint"/>
                    </mxGeometry>
                </mxCell>
                <mxCell id="39" value="" style="edgeStyle=elbowEdgeStyle;elbow=horizontal;endArrow=classic;html=1;rounded=1;endSize=8;startSize=8;dashed=1;strokeColor=#0077FF;exitX=1;exitY=0.5;exitDx=0;exitDy=0;entryX=0;entryY=0.5;entryDx=0;entryDy=0;" parent="1" source="2" target="37" edge="1">
                    <mxGeometry width="50" height="50" relative="1" as="geometry">
                        <mxPoint x="634.75" y="792.5" as="sourcePoint"/>
                        <mxPoint x="694.75" y="717.5" as="targetPoint"/>
                    </mxGeometry>
                </mxCell>
                <mxCell id="41" value="" style="endArrow=classic;startArrow=classic;html=1;rounded=1;strokeColor=#0077FF;entryX=0.5;entryY=0;entryDx=0;entryDy=0;exitX=0.5;exitY=1;exitDx=0;exitDy=0;" parent="1" source="7" target="14" edge="1">
                    <mxGeometry width="50" height="50" relative="1" as="geometry">
                        <mxPoint x="856" y="888.75" as="sourcePoint"/>
                        <mxPoint x="906" y="838.75" as="targetPoint"/>
                    </mxGeometry>
                </mxCell>
                <mxCell id="42" value="" style="endArrow=classic;startArrow=classic;html=1;rounded=1;strokeColor=#0077FF;entryX=0.5;entryY=0;entryDx=0;entryDy=0;exitX=0.5;exitY=1;exitDx=0;exitDy=0;" parent="1" source="14" target="24" edge="1">
                    <mxGeometry width="50" height="50" relative="1" as="geometry">
                        <mxPoint x="664.75" y="533.75" as="sourcePoint"/>
                        <mxPoint x="664.75" y="613.75" as="targetPoint"/>
                    </mxGeometry>
                </mxCell>
                <mxCell id="43" value="shai" style="text;html=1;strokeColor=none;fillColor=none;align=center;verticalAlign=middle;whiteSpace=wrap;rounded=0;fontSize=32;fontStyle=1;fontColor=#0077FF;" parent="1" vertex="1">
                    <mxGeometry x="-70" y="302.5" width="130" height="77.5" as="geometry"/>
                </mxCell>
                <mxCell id="44" value="&lt;span style=&quot;border-color: var(--border-color); color: rgb(0, 119, 255); font-weight: bold; font-size: 22px;&quot;&gt;term&lt;/span&gt;&lt;br style=&quot;border-color: var(--border-color); color: rgb(0, 119, 255);&quot;&gt;&lt;font style=&quot;border-color: var(--border-color); color: rgb(0, 119, 255); font-size: 14px;&quot;&gt;shai terminal&lt;/font&gt;&lt;font color=&quot;#0077ff&quot; style=&quot;&quot;&gt;&lt;br&gt;&lt;/font&gt;" style="rounded=1;whiteSpace=wrap;html=1;strokeColor=#0077FF;fillColor=none;shadow=0;" parent="1" vertex="1">
                    <mxGeometry x="695.38" y="743.75" width="200" height="100" as="geometry"/>
                </mxCell>
                <mxCell id="45" value="" style="endArrow=classic;html=1;fontSize=14;fontColor=#0077FF;entryX=0;entryY=0.5;entryDx=0;entryDy=0;exitX=1;exitY=0.5;exitDx=0;exitDy=0;strokeColor=#0077FF;dashed=1;" parent="1" source="2" target="44" edge="1">
                    <mxGeometry width="50" height="50" relative="1" as="geometry">
                        <mxPoint x="288.5" y="803.75" as="sourcePoint"/>
                        <mxPoint x="353.5" y="803.75" as="targetPoint"/>
                    </mxGeometry>
                </mxCell>
                <mxCell id="46" value="&lt;span style=&quot;color: rgb(0, 119, 255); font-size: 14px;&quot;&gt;SIGNAL&lt;/span&gt;" style="text;html=1;strokeColor=none;fillColor=none;align=center;verticalAlign=middle;whiteSpace=wrap;rounded=0;" parent="1" vertex="1">
                    <mxGeometry x="655.25" y="511.75" width="74" height="30" as="geometry"/>
                </mxCell>
                <mxCell id="49" value="&lt;span style=&quot;color: rgb(0, 119, 255); font-size: 14px;&quot;&gt;PACKAGE&lt;/span&gt;" style="text;html=1;strokeColor=none;fillColor=none;align=center;verticalAlign=middle;whiteSpace=wrap;rounded=0;" parent="1" vertex="1">
                    <mxGeometry x="655.25" y="1049.75" width="89" height="30" as="geometry"/>
                </mxCell>
                <mxCell id="50" value="&lt;span style=&quot;color: rgb(0, 119, 255); font-size: 14px;&quot;&gt;REST&lt;/span&gt;" style="text;html=1;strokeColor=none;fillColor=none;align=center;verticalAlign=middle;whiteSpace=wrap;rounded=0;" parent="1" vertex="1">
                    <mxGeometry x="1364.25" y="800.75" width="74" height="30" as="geometry"/>
                </mxCell>
                <mxCell id="53" value="" style="edgeStyle=elbowEdgeStyle;elbow=horizontal;endArrow=classic;html=1;curved=0;rounded=0;endSize=8;startSize=8;exitX=1;exitY=0.5;exitDx=0;exitDy=0;entryX=0;entryY=0.5;entryDx=0;entryDy=0;strokeColor=#0077FF;" parent="1" source="14" target="8" edge="1">
                    <mxGeometry width="50" height="50" relative="1" as="geometry">
                        <mxPoint x="1029.25" y="871.75" as="sourcePoint"/>
                        <mxPoint x="1079.25" y="821.75" as="targetPoint"/>
                        <Array as="points">
                            <mxPoint x="966.25" y="821.75"/>
                            <mxPoint x="1009.25" y="812.75"/>
                        </Array>
                    </mxGeometry>
                </mxCell>
                <mxCell id="54" value="&lt;font color=&quot;#0077ff&quot; style=&quot;&quot;&gt;&lt;b style=&quot;&quot;&gt;&lt;font style=&quot;font-size: 14px;&quot;&gt;drive&lt;/font&gt;&lt;/b&gt;&lt;br&gt;&lt;/font&gt;" style="rounded=1;whiteSpace=wrap;html=1;strokeColor=#0077FF;fillColor=none;shadow=0;" parent="1" vertex="1">
                    <mxGeometry x="1196.5" y="669.75" width="100" height="50" as="geometry"/>
                </mxCell>
                <mxCell id="55" value="&lt;font color=&quot;#0077ff&quot; style=&quot;&quot;&gt;&lt;b style=&quot;&quot;&gt;&lt;font style=&quot;font-size: 14px;&quot;&gt;etcd&lt;/font&gt;&lt;/b&gt;&lt;br&gt;&lt;/font&gt;" style="rounded=1;whiteSpace=wrap;html=1;strokeColor=#0077FF;fillColor=none;shadow=0;" parent="1" vertex="1">
                    <mxGeometry x="1196.5" y="807.25" width="100" height="50" as="geometry"/>
                </mxCell>
                <mxCell id="56" value="&lt;font color=&quot;#0077ff&quot; style=&quot;&quot;&gt;&lt;b style=&quot;&quot;&gt;&lt;font style=&quot;font-size: 14px;&quot;&gt;gpt&lt;/font&gt;&lt;/b&gt;&lt;br&gt;&lt;/font&gt;" style="rounded=1;whiteSpace=wrap;html=1;strokeColor=#0077FF;fillColor=none;shadow=0;" parent="1" vertex="1">
                    <mxGeometry x="1196.5" y="944.75" width="100" height="50" as="geometry"/>
                </mxCell>
                <mxCell id="58" value="shdrive" style="text;strokeColor=none;fillColor=none;html=1;fontSize=14;fontStyle=1;verticalAlign=middle;align=center;rounded=0;shadow=0;fontColor=#0077FF;" parent="1" vertex="1">
                    <mxGeometry x="1151.25" y="387.25" width="77.5" height="40" as="geometry"/>
                </mxCell>
                <mxCell id="59" value="" style="edgeStyle=elbowEdgeStyle;elbow=horizontal;endArrow=classic;html=1;curved=0;rounded=0;endSize=8;startSize=8;exitX=1;exitY=0.5;exitDx=0;exitDy=0;entryX=-0.001;entryY=0.064;entryDx=0;entryDy=0;strokeColor=#0077FF;entryPerimeter=0;" parent="1" source="7" target="8" edge="1">
                    <mxGeometry width="50" height="50" relative="1" as="geometry">
                        <mxPoint x="976" y="803.75" as="sourcePoint"/>
                        <mxPoint x="1156" y="841.25" as="targetPoint"/>
                        <Array as="points">
                            <mxPoint x="1009.25" y="637.75"/>
                        </Array>
                    </mxGeometry>
                </mxCell>
                <mxCell id="61" value="" style="endArrow=none;html=1;strokeColor=#0077FF;dashed=1;" parent="1" edge="1">
                    <mxGeometry width="50" height="50" relative="1" as="geometry">
                        <mxPoint x="1053.11" y="1290.81" as="sourcePoint"/>
                        <mxPoint x="1051.3942465753428" y="373.6900000000001" as="targetPoint"/>
                    </mxGeometry>
                </mxCell>
                <mxCell id="60" value="&lt;span style=&quot;color: rgb(0, 119, 255); font-size: 14px;&quot;&gt;RPC&lt;/span&gt;" style="text;html=1;strokeColor=none;fillColor=none;align=center;verticalAlign=middle;whiteSpace=wrap;rounded=0;" parent="1" vertex="1">
                    <mxGeometry x="1015.25" y="412.75" width="74" height="30" as="geometry"/>
                </mxCell>
                <mxCell id="48" value="&lt;span style=&quot;color: rgb(0, 119, 255); font-size: 14px;&quot;&gt;RPC&lt;/span&gt;" style="text;html=1;strokeColor=none;fillColor=none;align=center;verticalAlign=middle;whiteSpace=wrap;rounded=0;" parent="1" vertex="1">
                    <mxGeometry x="1015.25" y="800.75" width="74" height="30" as="geometry"/>
                </mxCell>
                <mxCell id="62" value="&lt;span style=&quot;border-color: var(--border-color); color: rgb(0, 119, 255); font-weight: bold; font-size: 22px;&quot;&gt;recall&lt;/span&gt;&lt;br style=&quot;border-color: var(--border-color); color: rgb(0, 119, 255);&quot;&gt;&lt;font style=&quot;border-color: var(--border-color); color: rgb(0, 119, 255); font-size: 14px;&quot;&gt;embedding model&lt;/font&gt;&lt;font color=&quot;#0077ff&quot; style=&quot;&quot;&gt;&lt;br&gt;&lt;/font&gt;" style="rounded=1;whiteSpace=wrap;html=1;strokeColor=#0077FF;fillColor=none;shadow=0;" parent="1" vertex="1">
                    <mxGeometry x="1523.88" y="553" width="200" height="100" as="geometry"/>
                </mxCell>
                <mxCell id="63" value="&lt;span style=&quot;border-color: var(--border-color); color: rgb(0, 119, 255); font-weight: bold; font-size: 22px;&quot;&gt;rerank&lt;/span&gt;&lt;br style=&quot;border-color: var(--border-color); color: rgb(0, 119, 255);&quot;&gt;&lt;font style=&quot;border-color: var(--border-color); color: rgb(0, 119, 255); font-size: 14px;&quot;&gt;rerank model&lt;/font&gt;&lt;font color=&quot;#0077ff&quot; style=&quot;&quot;&gt;&lt;br&gt;&lt;/font&gt;" style="rounded=1;whiteSpace=wrap;html=1;strokeColor=#0077FF;fillColor=none;shadow=0;" parent="1" vertex="1">
                    <mxGeometry x="1523.88" y="782.25" width="200" height="100" as="geometry"/>
                </mxCell>
                <mxCell id="64" value="&lt;span style=&quot;border-color: var(--border-color); color: rgb(0, 119, 255); font-weight: bold; font-size: 22px;&quot;&gt;llm&lt;/span&gt;&lt;br style=&quot;border-color: var(--border-color); color: rgb(0, 119, 255);&quot;&gt;&lt;font style=&quot;border-color: var(--border-color); color: rgb(0, 119, 255); font-size: 14px;&quot;&gt;chat llm &amp;amp; code llm&lt;/font&gt;&lt;font color=&quot;#0077ff&quot; style=&quot;&quot;&gt;&lt;br&gt;&lt;/font&gt;" style="rounded=1;whiteSpace=wrap;html=1;strokeColor=#0077FF;fillColor=none;shadow=0;" parent="1" vertex="1">
                    <mxGeometry x="1523.88" y="1012" width="200" height="100" as="geometry"/>
                </mxCell>
            </root>
        </mxGraphModel>
    </diagram>
</mxfile>